# xmcd
#
# Track frame offsets:
#	150
#	14009
#	26777
#	40347
#	54341
#	70690
#	85420
#	96568
#	118139
#	132507
#	147086
#	162678
#	185073
#	199741
#	210041
#	231279
#
# Disc length: 3263 seconds
#
# Revision: 2
# Processed by: cddbd v1.5.2PL0 Copyright (c) Steve Scherf et al.
# Submitted via: audiograbber 1.83.01
#
DISCID=ef0cbd10
DTITLE=Big Bill Broonzy - See See Rider
DYEAR=2002
DGENRE=Blues
TTITLE0=Mountain Blues
TTITLE1=I want to go home
TTITLE2=At the break of day
TTITLE3=The sun gonna shine in my door someday
TTITLE4=The southern blues
TTITLE5=I can´t make you satisfied
TTITLE6=St. Louis Blues
TTITLE7=Feelin´ lowdown
TTITLE8=All I got belongs to you
TTITLE9=Baby please don´t go
TTITLE10=In the evenin´
TTITLE11=Ridin´ on down
TTITLE12=Treat everybody right
TTITLE13=Sixteen tons
TTITLE14=I got up one mornin´ blues
TTITLE15=See see rider
EXTD=
EXTT0=Chicago, July 27, 1935
EXTT1=Chicago, June 14, 1935
EXTT2=Chicago, June 14, 1935
EXTT3=Chicago, October 31, 1935
EXTT4=Chicago, February 26, 1935
EXTT5=Chicago, July 27, 1935
EXTT6=
EXTT7=
EXTT8=
EXTT9=
EXTT10=
EXTT11=
EXTT12=
EXTT13=
EXTT14=
EXTT15=
PLAYORDER=
